<?xml version="1.0" encoding="UTF-8" standalone="no"?>
<svg
   xmlns:dc="http://purl.org/dc/elements/1.1/"
   xmlns:cc="http://creativecommons.org/ns#"
   xmlns:rdf="http://www.w3.org/1999/02/22-rdf-syntax-ns#"
   xmlns:svg="http://www.w3.org/2000/svg"
   xmlns="http://www.w3.org/2000/svg"
   id="svg4"
   version="1.1"
   viewBox="0 0 26 26">
  <metadata
     id="metadata10">
    <rdf:RDF>
      <cc:Work
         rdf:about="">
        <dc:format>image/svg+xml</dc:format>
        <dc:type
           rdf:resource="http://purl.org/dc/dcmitype/StillImage" />
      </cc:Work>
    </rdf:RDF>
  </metadata>
  <defs
     id="defs8" />
  <path
     id="path2"
     fill="#fff"
     d="M13 0A13 13 0 0 0 0 13 13 13 0 0 0 13 26 13 13 0 0 0 26 13 13 13 0 0 0 13 0M18.377 7C18.591 6.989 18.831 7.02 18.943 7.209 19.11 7.48 18.867 8.129 18.867 8.129L14.357 20.301C14.357 20.301 14.232 20.873 13.678 20.986 13.03 21.12 12.684 20.297 12.684 20.297L10.279 15.705 5.197 12.787C5.197 12.787 4.987 12.68 5 12.271 5.02 11.868 5.42 11.74 5.42 11.74L5.424 11.738 17.977 7.08C17.977 7.08 18.16 7.02 18.377 7" />
</svg>
